# xmcd
#
# Track frame offsets: 
#        150
#        23345
#        45642
#        62880
#        77160
#        95407
#        125085
#        154497
#        181187
#        208522
#        239520
#
# Disc length: 3453 seconds
#
# Revision: 4
# Processed by: cddbd v1.5.2PL0 Copyright (c) Steve Scherf et al.
# Submitted via: ExactAudioCopy v0.95b4
#
DISCID=900d7b0b
DTITLE=David Munyon - Poet Wind
DYEAR=1998
DGENRE=Blues
TTITLE0=Poet Wind
TTITLE1=Shiva's Smile
TTITLE2=Snowin' On Raton
TTITLE3=Dorothy Harris
TTITLE4=Leaving The Scene Of A Heartbreak
TTITLE5=In India
TTITLE6=Save The Whales In Placerville And Hickston
TTITLE7=Guitar Road
TTITLE8=The Pirate Song
TTITLE9=From Just An Old Man
TTITLE10=Save The World
EXTD=
EXTT0=
EXTT1=
EXTT2=
EXTT3=
EXTT4=
EXTT5=
EXTT6=
EXTT7=
EXTT8=
EXTT9=
EXTT10=
PLAYORDER=
